<svg width="172" height="40" viewBox="0 0 172 40" fill="none" xmlns="http://www.w3.org/2000/svg">
<path d="M61.7973 13.96V18.16H67.4373V20.824H61.7973V25.264H68.1573V28H58.4373V11.224H68.1573V13.96H61.7973ZM76.9947 28.168C75.8267 28.168 74.7707 27.968 73.8267 27.568C72.8987 27.168 72.1627 26.592 71.6187 25.84C71.0747 25.088 70.7947 24.2 70.7787 23.176H74.3787C74.4267 23.864 74.6667 24.408 75.0987 24.808C75.5467 25.208 76.1547 25.408 76.9227 25.408C77.7067 25.408 78.3227 25.224 78.7707 24.856C79.2187 24.472 79.4427 23.976 79.4427 23.368C79.4427 22.872 79.2907 22.464 78.9867 22.144C78.6827 21.824 78.2987 21.576 77.8347 21.4C77.3867 21.208 76.7627 21 75.9627 20.776C74.8747 20.456 73.9867 20.144 73.2987 19.84C72.6267 19.52 72.0427 19.048 71.5467 18.424C71.0667 17.784 70.8267 16.936 70.8267 15.88C70.8267 14.888 71.0747 14.024 71.5707 13.288C72.0667 12.552 72.7627 11.992 73.6587 11.608C74.5547 11.208 75.5787 11.008 76.7307 11.008C78.4587 11.008 79.8587 11.432 80.9307 12.28C82.0187 13.112 82.6187 14.28 82.7307 15.784H79.0347C79.0027 15.208 78.7547 14.736 78.2907 14.368C77.8427 13.984 77.2427 13.792 76.4907 13.792C75.8347 13.792 75.3067 13.96 74.9067 14.296C74.5227 14.632 74.3307 15.12 74.3307 15.76C74.3307 16.208 74.4747 16.584 74.7627 16.888C75.0667 17.176 75.4347 17.416 75.8667 17.608C76.3147 17.784 76.9387 17.992 77.7387 18.232C78.8267 18.552 79.7147 18.872 80.4027 19.192C81.0907 19.512 81.6827 19.992 82.1787 20.632C82.6747 21.272 82.9227 22.112 82.9227 23.152C82.9227 24.048 82.6907 24.88 82.2267 25.648C81.7627 26.416 81.0827 27.032 80.1867 27.496C79.2907 27.944 78.2267 28.168 76.9947 28.168ZM109.818 11.248V28H106.458V17.104L101.97 28H99.4264L94.9144 17.104V28H91.5544V11.248H95.3704L100.698 23.704L106.026 11.248H109.818ZM119.044 28.216C117.764 28.216 116.612 27.936 115.588 27.376C114.564 26.8 113.756 25.992 113.164 24.952C112.588 23.912 112.3 22.712 112.3 21.352C112.3 19.992 112.596 18.792 113.188 17.752C113.796 16.712 114.62 15.912 115.66 15.352C116.7 14.776 117.86 14.488 119.14 14.488C120.42 14.488 121.58 14.776 122.62 15.352C123.66 15.912 124.476 16.712 125.068 17.752C125.676 18.792 125.98 19.992 125.98 21.352C125.98 22.712 125.668 23.912 125.044 24.952C124.436 25.992 123.604 26.8 122.548 27.376C121.508 27.936 120.34 28.216 119.044 28.216ZM119.044 25.288C119.652 25.288 120.22 25.144 120.748 24.856C121.292 24.552 121.724 24.104 122.044 23.512C122.364 22.92 122.524 22.2 122.524 21.352C122.524 20.088 122.188 19.12 121.516 18.448C120.86 17.76 120.052 17.416 119.092 17.416C118.132 17.416 117.324 17.76 116.668 18.448C116.028 19.12 115.708 20.088 115.708 21.352C115.708 22.616 116.02 23.592 116.644 24.28C117.284 24.952 118.084 25.288 119.044 25.288ZM135.813 14.512C137.397 14.512 138.677 15.016 139.653 16.024C140.629 17.016 141.117 18.408 141.117 20.2V28H137.757V20.656C137.757 19.6 137.493 18.792 136.965 18.232C136.437 17.656 135.717 17.368 134.805 17.368C133.877 17.368 133.141 17.656 132.597 18.232C132.069 18.792 131.805 19.6 131.805 20.656V28H128.445V14.704H131.805V16.36C132.253 15.784 132.821 15.336 133.509 15.016C134.213 14.68 134.981 14.512 135.813 14.512ZM156.672 21.064C156.672 21.544 156.64 21.976 156.576 22.36H146.856C146.936 23.32 147.272 24.072 147.864 24.616C148.456 25.16 149.184 25.432 150.048 25.432C151.296 25.432 152.184 24.896 152.712 23.824H156.336C155.952 25.104 155.216 26.16 154.128 26.992C153.04 27.808 151.704 28.216 150.12 28.216C148.84 28.216 147.688 27.936 146.664 27.376C145.656 26.8 144.864 25.992 144.288 24.952C143.728 23.912 143.448 22.712 143.448 21.352C143.448 19.976 143.728 18.768 144.288 17.728C144.848 16.688 145.632 15.888 146.64 15.328C147.648 14.768 148.808 14.488 150.12 14.488C151.384 14.488 152.512 14.76 153.504 15.304C154.512 15.848 155.288 16.624 155.832 17.632C156.392 18.624 156.672 19.768 156.672 21.064ZM153.192 20.104C153.176 19.24 152.864 18.552 152.256 18.04C151.648 17.512 150.904 17.248 150.024 17.248C149.192 17.248 148.488 17.504 147.912 18.016C147.352 18.512 147.008 19.208 146.88 20.104H153.192ZM171.845 14.704L163.613 34.288H160.037L162.917 27.664L157.589 14.704H161.357L164.789 23.992L168.269 14.704H171.845Z" fill="#E7E3F2"/>
<path d="M20 1C25.077 1 29.8451 2.97496 33.4351 6.56492C37.025 10.155 39 14.923 39 20C39 25.077 37.025 29.8451 33.4351 33.4351C29.8451 37.025 25.077 39 20 39C14.923 39 10.1548 37.0251 6.56493 33.4351C2.97503 29.845 1 25.077 1 20C1 14.923 2.97496 10.1549 6.56492 6.56492C10.1549 2.97496 14.923 1 20 1Z" stroke="#33CC95" stroke-width="2"/>
<g clip-path="url(#clip0)">
<path d="M20.5714 8V33.1429" stroke="#33CC95" stroke-width="2" stroke-linecap="round" stroke-linejoin="round"/>
<path d="M26.2857 12.5714H17.7143C16.6534 12.5714 15.636 12.9929 14.8859 13.743C14.1357 14.4931 13.7143 15.5106 13.7143 16.5714C13.7143 17.6323 14.1357 18.6497 14.8859 19.3999C15.636 20.15 16.6534 20.5714 17.7143 20.5714H23.4286C24.4894 20.5714 25.5069 20.9929 26.257 21.743C27.0072 22.4932 27.4286 23.5106 27.4286 24.5714C27.4286 25.6323 27.0072 26.6497 26.257 27.3999C25.5069 28.15 24.4894 28.5714 23.4286 28.5714H13.7143" stroke="#33CC95" stroke-width="2" stroke-linecap="round" stroke-linejoin="round"/>
</g>
<defs>
<clipPath id="clip0">
<rect width="27.4286" height="27.4286" fill="white" transform="translate(6.85715 6.85714)"/>
</clipPath>
</defs>
</svg>
