<svg width="40" height="40" viewBox="0 0 40 40" fill="none" xmlns="http://www.w3.org/2000/svg">
<path d="M20 1C25.077 1 29.8451 2.97496 33.4351 6.56492C37.025 10.155 39 14.923 39 20C39 25.077 37.025 29.8451 33.4351 33.4351C29.8451 37.025 25.077 39 20 39C14.923 39 10.1548 37.0251 6.56493 33.4351C2.97503 29.845 1 25.077 1 20C1 14.923 2.97496 10.1549 6.56492 6.56492C10.1549 2.97496 14.923 1 20 1Z" stroke="#33CC95" stroke-width="2"/>
<g clip-path="url(#clip0)">
<path d="M20.5714 8V33.1429" stroke="#33CC95" stroke-width="2" stroke-linecap="round" stroke-linejoin="round"/>
<path d="M26.2857 12.5714H17.7143C16.6534 12.5714 15.636 12.9929 14.8859 13.743C14.1357 14.4931 13.7143 15.5106 13.7143 16.5714C13.7143 17.6323 14.1357 18.6497 14.8859 19.3999C15.636 20.15 16.6534 20.5714 17.7143 20.5714H23.4286C24.4894 20.5714 25.5069 20.9929 26.257 21.743C27.0072 22.4932 27.4286 23.5106 27.4286 24.5714C27.4286 25.6323 27.0072 26.6497 26.257 27.3999C25.5069 28.15 24.4894 28.5714 23.4286 28.5714H13.7143" stroke="#33CC95" stroke-width="2" stroke-linecap="round" stroke-linejoin="round"/>
</g>
<defs>
<clipPath id="clip0">
<rect width="27.4286" height="27.4286" fill="white" transform="translate(6.85715 6.85714)"/>
</clipPath>
</defs>
</svg>
